<mxfile host="app.diagrams.net" modified="2023-07-31T23:16:40.327Z" agent="Mozilla/5.0 (Macintosh; Intel Mac OS X 10_15_7) AppleWebKit/605.1.15 (KHTML, like Gecko) Version/15.6.1 Safari/605.1.15" etag="gdZg9gFap98pq9VWP2pB" version="21.6.6" type="github">
  <diagram name="Page-1" id="5gaHdG_h771qDT-T3JR0">
    <mxGraphModel dx="887" dy="556" grid="1" gridSize="10" guides="1" tooltips="1" connect="1" arrows="1" fold="1" page="1" pageScale="1" pageWidth="827" pageHeight="1169" math="0" shadow="0">
      <root>
        <mxCell id="0" />
        <mxCell id="1" parent="0" />
        <mxCell id="mgc-hLITFfWwmoxQKZZU-7" value="" style="endArrow=classic;startArrow=classic;html=1;rounded=0;strokeWidth=3;" edge="1" parent="1">
          <mxGeometry width="50" height="50" relative="1" as="geometry">
            <mxPoint x="240" y="280" as="sourcePoint" />
            <mxPoint x="560" y="280" as="targetPoint" />
          </mxGeometry>
        </mxCell>
        <mxCell id="mgc-hLITFfWwmoxQKZZU-8" value="" style="outlineConnect=0;dashed=0;verticalLabelPosition=bottom;verticalAlign=top;align=center;html=1;shape=mxgraph.aws3.documents;fillColor=#759C3E;gradientColor=none;" vertex="1" parent="1">
          <mxGeometry x="80" y="160" width="90" height="100.5" as="geometry" />
        </mxCell>
        <mxCell id="mgc-hLITFfWwmoxQKZZU-9" value="" style="html=1;verticalLabelPosition=bottom;align=center;labelBackgroundColor=#ffffff;verticalAlign=top;strokeWidth=2;strokeColor=#0080F0;shadow=0;dashed=0;shape=mxgraph.ios7.icons.document;" vertex="1" parent="1">
          <mxGeometry x="70" y="280" width="21" height="30" as="geometry" />
        </mxCell>
        <mxCell id="mgc-hLITFfWwmoxQKZZU-10" value="Document" style="html=1;whiteSpace=wrap;strokeColor=none;fillColor=#0079D6;labelPosition=center;verticalLabelPosition=middle;verticalAlign=top;align=center;fontSize=12;outlineConnect=0;spacingTop=-6;fontColor=#FFFFFF;sketch=0;shape=mxgraph.sitemap.document;" vertex="1" parent="1">
          <mxGeometry x="110" y="300" width="120" height="70" as="geometry" />
        </mxCell>
      </root>
    </mxGraphModel>
  </diagram>
</mxfile>
